<svg width="20"
     height="20"
     viewBox="0 0 20 20"
     fill="none"
     stroke="#6C6C6C"
     xmlns="http://www.w3.org/2000/svg">
  <path d="M5 8.33366V6.66699C5 3.90866 5.83333 1.66699 10 1.66699C14.1667 1.66699 15 3.90866 15 6.66699V8.33366"
        stroke-linecap="round"
        stroke-linejoin="round" />
  <path d="M9.99996 15.4167C11.1506 15.4167 12.0833 14.4839 12.0833 13.3333C12.0833 12.1827 11.1506 11.25 9.99996 11.25C8.84937 11.25 7.91663 12.1827 7.91663 13.3333C7.91663 14.4839 8.84937 15.4167 9.99996 15.4167Z"
        stroke-linecap="round"
        stroke-linejoin="round" />
  <path d="M14.1666 18.333H5.83329C2.49996 18.333 1.66663 17.4997 1.66663 14.1663V12.4997C1.66663 9.16634 2.49996 8.33301 5.83329 8.33301H14.1666C17.5 8.33301 18.3333 9.16634 18.3333 12.4997V14.1663C18.3333 17.4997 17.5 18.333 14.1666 18.333Z"
        stroke-linecap="round"
        stroke-linejoin="round" />
</svg>
