<svg width="20" height="20" viewBox="0 0 20 20" fill="none" xmlns="http://www.w3.org/2000/svg">
<path d="M18.3084 15.2744C18.3084 15.5744 18.2417 15.8827 18.1 16.1827C17.9584 16.4827 17.775 16.766 17.5334 17.0327C17.125 17.4827 16.675 17.8077 16.1667 18.016C15.6667 18.2244 15.125 18.3327 14.5417 18.3327C13.6917 18.3327 12.7834 18.1327 11.825 17.7244C10.8667 17.316 9.90835 16.766 8.95835 16.0744C8.00002 15.3744 7.09168 14.5994 6.22502 13.741C5.36669 12.8743 4.59169 11.966 3.90002 11.016C3.21669 10.066 2.66669 9.11602 2.26669 8.17435C1.86669 7.22435 1.66669 6.31602 1.66669 5.44935C1.66669 4.88268 1.76669 4.34102 1.96669 3.84102C2.16669 3.33268 2.48335 2.86602 2.92502 2.44935C3.45835 1.92435 4.04169 1.66602 4.65835 1.66602C4.89169 1.66602 5.12502 1.71602 5.33335 1.81602C5.55002 1.91602 5.74169 2.06602 5.89169 2.28268L7.82502 5.00768C7.97502 5.21602 8.08335 5.40768 8.15835 5.59102C8.23335 5.76602 8.27502 5.94102 8.27502 6.09935C8.27502 6.29935 8.21669 6.49935 8.10002 6.69102C7.99169 6.88268 7.83335 7.08268 7.63335 7.28268L7.00002 7.94102C6.90835 8.03268 6.86669 8.14102 6.86669 8.27435C6.86669 8.34102 6.87502 8.39935 6.89169 8.46602C6.91669 8.53268 6.94169 8.58268 6.95835 8.63268C7.10835 8.90768 7.36669 9.26602 7.73335 9.69935C8.10835 10.1327 8.50835 10.5744 8.94169 11.016C9.39169 11.4577 9.82502 11.866 10.2667 12.241C10.7 12.6077 11.0584 12.8577 11.3417 13.0077C11.3834 13.0244 11.4334 13.0494 11.4917 13.0744C11.5584 13.0994 11.625 13.1077 11.7 13.1077C11.8417 13.1077 11.95 13.0577 12.0417 12.966L12.675 12.341C12.8834 12.1327 13.0834 11.9744 13.275 11.8744C13.4667 11.7577 13.6584 11.6994 13.8667 11.6994C14.025 11.6994 14.1917 11.7327 14.375 11.8077C14.5584 11.8827 14.75 11.991 14.9584 12.1327L17.7167 14.091C17.9334 14.241 18.0834 14.416 18.175 14.6244C18.2584 14.8327 18.3084 15.041 18.3084 15.2744Z" stroke="#494949" stroke-miterlimit="10"/>
</svg>
