<svg width="153" height="51" viewBox="0 0 153 51" fill="none" xmlns="http://www.w3.org/2000/svg">
<circle cx="25.5" cy="25.5" r="25.5" transform="rotate(90 25.5 25.5)" fill="#A5BEEE"/>
<path d="M31.1255 22.7916C30.6019 22.5536 29.9831 22.4346 29.2691 22.4346C27.3889 22.4346 26.0918 23.4223 25.3778 25.3977C24.6638 27.3731 24.3068 30.4671 24.3068 34.6797H17.7023V22.7559L17.6309 16.3299H24.2354L23.9498 21.0423C24.521 19.3287 25.3421 18.0792 26.4131 17.2938C27.4841 16.4846 28.6741 16.08 29.9831 16.08C30.3877 16.08 30.7685 16.1038 31.1255 16.1514C31.5063 16.199 31.9109 16.2942 32.3393 16.437L31.1255 22.7916Z" fill="#1B1B1B"/>
<path d="M39.7777 35.0724C37.5881 35.0724 35.9221 34.3465 34.7797 32.8947C33.6611 31.4429 33.1137 29.3366 33.1375 26.5758L33.2089 16.3299H39.8491L39.7777 26.1117C39.7777 27.9681 40.4322 28.8963 41.7412 28.8963C42.3362 28.8963 42.8717 28.7178 43.3477 28.3608C43.8475 27.98 44.2759 27.3255 44.6329 26.3973C44.9899 25.4691 45.2755 24.1958 45.4897 22.5774C45.7039 20.9352 45.8229 18.8527 45.8467 16.3299H52.2727V34.6797H45.811L46.168 31.2525C45.454 32.4187 44.5496 33.3469 43.4548 34.0371C42.3838 34.7273 41.1581 35.0724 39.7777 35.0724Z" fill="#1B1B1B"/>
<path d="M74.938 8.26172V34.6797H68.3335L68.512 32.0736C67.2982 34.0728 65.4299 35.0724 62.9071 35.0724C60.5033 35.0724 58.5874 34.287 57.1594 32.7162C55.7314 31.1454 55.0174 28.9915 55.0174 26.2545C55.0174 24.2077 55.4458 22.4227 56.3026 20.8995C57.1832 19.3763 58.3375 18.1982 59.7655 17.3652C61.1935 16.5084 62.7286 16.08 64.3708 16.08C65.9654 16.08 67.2863 16.4489 68.3335 17.1867L68.2978 16.3299V8.26172H74.938ZM65.4061 21.792C64.3113 21.792 63.4426 22.2085 62.8 23.0415C62.1574 23.8507 61.8361 24.8503 61.8361 26.0403C61.8361 27.1113 62.086 27.9324 62.5858 28.5036C63.0856 29.0748 63.7639 29.3604 64.6207 29.3604C65.5965 29.3604 66.4414 28.9558 67.1554 28.1466C67.8932 27.3374 68.2621 26.2783 68.2621 24.9693C68.2621 23.9935 68.0003 23.22 67.4767 22.6488C66.9769 22.0776 66.2867 21.792 65.4061 21.792Z" fill="#1B1B1B"/>
<path d="M87.9958 35.0724C85.9014 35.0724 84.0807 34.7035 82.5337 33.9657C80.9867 33.2041 79.7848 32.1212 78.928 30.717C78.095 29.3128 77.6785 27.6587 77.6785 25.7547C77.6785 23.8269 78.095 22.1371 78.928 20.6853C79.7848 19.2335 80.9391 18.103 82.3909 17.2938C83.8427 16.4846 85.4611 16.08 87.2461 16.08C89.4357 16.08 91.185 16.556 92.494 17.508C93.803 18.46 94.6955 19.7809 95.1715 21.4707C95.6713 23.1367 95.7665 25.0645 95.4571 27.2541H84.4615C84.6281 27.8491 85.0565 28.3727 85.7467 28.8249C86.4369 29.2533 87.3651 29.4675 88.5313 29.4675C89.1977 29.4675 89.8284 29.3604 90.4234 29.1462C91.0422 28.9082 91.542 28.5869 91.9228 28.1823L95.3857 32.2164C94.7193 33.0018 93.7911 33.6801 92.6011 34.2513C91.4349 34.7987 89.8998 35.0724 87.9958 35.0724ZM87.5317 20.7567C86.7939 20.7567 86.1632 20.959 85.6396 21.3636C85.116 21.7682 84.759 22.3394 84.5686 23.0772H89.9593C89.8879 21.5302 89.0787 20.7567 87.5317 20.7567Z" fill="#1B1B1B"/>
<path d="M98.3402 34.6797V16.3299H104.909L104.659 19.8285C105.397 18.6385 106.301 17.7222 107.372 17.0796C108.467 16.4132 109.693 16.08 111.049 16.08C112.311 16.08 113.453 16.3656 114.477 16.9368C115.5 17.508 116.285 18.4719 116.833 19.8285C117.642 18.5195 118.677 17.5675 119.939 16.9725C121.2 16.3775 122.473 16.08 123.759 16.08C126.02 16.08 127.697 16.8416 128.792 18.3648C129.887 19.8642 130.423 22.0895 130.399 25.0407L130.327 34.6797H123.687L123.759 25.3977C123.759 23.2557 123.092 22.1847 121.759 22.1847C121.212 22.1847 120.7 22.3751 120.224 22.7559C119.748 23.1129 119.32 23.7555 118.939 24.6837C118.582 25.5881 118.285 26.8614 118.047 28.5036C117.832 30.122 117.701 32.1807 117.654 34.6797H111.049V25.3977C111.049 23.2557 110.383 22.1847 109.05 22.1847C108.503 22.1847 107.991 22.3751 107.515 22.7559C107.039 23.1129 106.611 23.7555 106.23 24.6837C105.873 25.5881 105.575 26.8614 105.337 28.5036C105.123 30.122 104.992 32.1807 104.945 34.6797H98.3402Z" fill="#1B1B1B"/>
<path d="M140.544 42.1767C139.783 42.1767 138.95 42.1172 138.045 41.9982C137.165 41.903 136.308 41.7364 135.475 41.4984C134.666 41.2604 133.987 40.9629 133.44 40.6059L135.011 34.9653C135.915 35.4175 136.831 35.7626 137.76 36.0006C138.712 36.2624 139.771 36.3933 140.937 36.3933C142.817 36.3933 144.162 35.9887 144.971 35.1795C145.78 34.3703 146.256 33.1089 146.399 31.3953L146.47 30.5028C145.756 31.6452 144.864 32.5496 143.793 33.216C142.722 33.8824 141.496 34.2156 140.116 34.2156C137.807 34.2156 136.106 33.454 135.011 31.9308C133.916 30.4076 133.38 28.3013 133.404 25.6119L133.44 16.3299H140.08L140.044 25.1835C140.044 26.1355 140.223 26.8495 140.58 27.3255C140.961 27.8015 141.484 28.0395 142.151 28.0395C142.984 28.0395 143.686 27.6944 144.257 27.0042C144.852 26.2902 145.316 25.0883 145.649 23.3985C146.006 21.6849 146.209 19.3287 146.256 16.3299H152.682V30.6813C152.682 33.3469 152.171 35.5246 151.147 37.2144C150.148 38.9042 148.731 40.1537 146.899 40.9629C145.09 41.7721 142.972 42.1767 140.544 42.1767Z" fill="#1B1B1B"/>
</svg>
