<svg width="100%"
     height="100%"
     viewBox="0 0 22 22"
     stroke="#1B1B1B"
     fill="none">
  <path d="M12.73 2.51063L14.49 6.03063C14.73 6.52063 15.37 6.99063 15.91 7.08063L19.1 7.61062C21.14 7.95062 21.62 9.43062 20.15 10.8906L17.67 13.3706C17.25 13.7906 17.02 14.6006 17.15 15.1806L17.86 18.2506C18.42 20.6806 17.13 21.6206 14.98 20.3506L11.99 18.5806C11.45 18.2606 10.56 18.2606 10.01 18.5806L7.01997 20.3506C4.87997 21.6206 3.57997 20.6706 4.13997 18.2506L4.84997 15.1806C4.97997 14.6006 4.74997 13.7906 4.32997 13.3706L1.84997 10.8906C0.38997 9.43062 0.85997 7.95062 2.89997 7.61062L6.08997 7.08063C6.61997 6.99063 7.25997 6.52063 7.49997 6.03063L9.25997 2.51063C10.22 0.600625 11.78 0.600625 12.73 2.51063Z"
        stroke-linecap="round"
        stroke-linejoin="round" />
</svg>