<svg viewBox="0 0 152 51"
     fill="none"
     width="100%"
     height="auto">
      <ellipse cx="25.3859"
               cy="25.5"
               rx="25.5"
               ry="25.386"
               transform="rotate(90 25.3859 25.5)"
               fill="#0D99FF" />
      <path d="M30.9865 22.7916C30.4653 22.5536 29.8492 22.4346 29.1384 22.4346C27.2666 22.4346 25.9753 23.4223 25.2645 25.3977C24.5537 27.3731 24.1983 30.4671 24.1983 34.6797H17.6233V22.7559L17.5522 16.3299H24.1272L23.8429 21.0423C24.4116 19.3287 25.229 18.0792 26.2952 17.2938C27.3614 16.4846 28.5461 16.08 29.8492 16.08C30.252 16.08 30.6311 16.1038 30.9865 16.1514C31.3656 16.199 31.7684 16.2942 32.1949 16.437L30.9865 22.7916Z"
            fill="#1B1B1B" />
      <path d="M39.6001 35.0724C37.4203 35.0724 35.7617 34.3465 34.6244 32.8947C33.5108 31.4429 32.9659 29.3366 32.9896 26.5758L33.0607 16.3299H39.6712L39.6001 26.1117C39.6001 27.9681 40.2517 28.8963 41.5548 28.8963C42.1472 28.8963 42.6803 28.7178 43.1542 28.3608C43.6517 27.98 44.0782 27.3255 44.4336 26.3973C44.789 25.4691 45.0733 24.1958 45.2866 22.5774C45.4998 20.9352 45.6183 18.8527 45.642 16.3299H52.0393V34.6797H45.6065L45.9619 31.2525C45.251 32.4187 44.3507 33.3469 43.2608 34.0371C42.1946 34.7273 40.9743 35.0724 39.6001 35.0724Z"
            fill="#1B1B1B" />
      <path d="M74.6033 8.26172V34.6797H68.0283L68.206 32.0736C66.9976 34.0728 65.1377 35.0724 62.6262 35.0724C60.2331 35.0724 58.3258 34.287 56.9042 32.7162C55.4825 31.1454 54.7717 28.9915 54.7717 26.2545C54.7717 24.2077 55.1982 22.4227 56.0512 20.8995C56.9278 19.3763 58.077 18.1982 59.4986 17.3652C60.9202 16.5084 62.4485 16.08 64.0833 16.08C65.6708 16.08 66.9858 16.4489 68.0283 17.1867L67.9928 16.3299V8.26172H74.6033ZM65.114 21.792C64.0241 21.792 63.1593 22.2085 62.5195 23.0415C61.8798 23.8507 61.56 24.8503 61.56 26.0403C61.56 27.1113 61.8087 27.9324 62.3063 28.5036C62.8039 29.0748 63.4791 29.3604 64.3321 29.3604C65.3036 29.3604 66.1447 28.9558 66.8555 28.1466C67.59 27.3374 67.9572 26.2783 67.9572 24.9693C67.9572 23.9935 67.6966 23.22 67.1754 22.6488C66.6778 22.0776 65.9907 21.792 65.114 21.792Z"
            fill="#1B1B1B" />
      <path d="M87.6028 35.0724C85.5178 35.0724 83.7052 34.7035 82.1651 33.9657C80.625 33.2041 79.4285 32.1212 78.5755 30.717C77.7462 29.3128 77.3316 27.6587 77.3316 25.7547C77.3316 23.8269 77.7462 22.1371 78.5755 20.6853C79.4285 19.2335 80.5776 18.103 82.0229 17.2938C83.4682 16.4846 85.0794 16.08 86.8564 16.08C89.0363 16.08 90.7777 16.556 92.0809 17.508C93.384 18.46 94.2726 19.7809 94.7464 21.4707C95.244 23.1367 95.3388 25.0645 95.0307 27.2541H84.0843C84.2501 27.8491 84.6766 28.3727 85.3637 28.8249C86.0509 29.2533 86.9749 29.4675 88.1359 29.4675C88.7993 29.4675 89.4272 29.3604 90.0195 29.1462C90.6356 28.9082 91.1331 28.5869 91.5122 28.1823L94.9597 32.2164C94.2963 33.0018 93.3722 33.6801 92.1875 34.2513C91.0265 34.7987 89.4983 35.0724 87.6028 35.0724ZM87.1408 20.7567C86.4063 20.7567 85.7784 20.959 85.2571 21.3636C84.7359 21.7682 84.3805 22.3394 84.1909 23.0772H89.5575C89.4864 21.5302 88.6809 20.7567 87.1408 20.7567Z"
            fill="#1B1B1B" />
      <path d="M97.9009 34.6797V16.3299H104.44L104.192 19.8285C104.926 18.6385 105.826 17.7222 106.893 17.0796C107.983 16.4132 109.203 16.08 110.553 16.08C111.809 16.08 112.946 16.3656 113.965 16.9368C114.984 17.508 115.766 18.4719 116.311 19.8285C117.116 18.5195 118.147 17.5675 119.403 16.9725C120.659 16.3775 121.926 16.08 123.206 16.08C125.457 16.08 127.127 16.8416 128.217 18.3648C129.307 19.8642 129.84 22.0895 129.816 25.0407L129.745 34.6797H123.135L123.206 25.3977C123.206 23.2557 122.542 22.1847 121.215 22.1847C120.671 22.1847 120.161 22.3751 119.687 22.7559C119.213 23.1129 118.787 23.7555 118.408 24.6837C118.052 25.5881 117.756 26.8614 117.519 28.5036C117.306 30.122 117.176 32.1807 117.128 34.6797H110.553V25.3977C110.553 23.2557 109.89 22.1847 108.563 22.1847C108.018 22.1847 107.509 22.3751 107.035 22.7559C106.561 23.1129 106.134 23.7555 105.755 24.6837C105.4 25.5881 105.104 26.8614 104.867 28.5036C104.654 30.122 104.523 32.1807 104.476 34.6797H97.9009Z"
            fill="#1B1B1B" />
      <path d="M139.916 42.1767C139.158 42.1767 138.329 42.1172 137.429 41.9982C136.552 41.903 135.699 41.7364 134.87 41.4984C134.064 41.2604 133.389 40.9629 132.844 40.6059L134.408 34.9653C135.308 35.4175 136.22 35.7626 137.144 36.0006C138.092 36.2624 139.146 36.3933 140.307 36.3933C142.179 36.3933 143.518 35.9887 144.323 35.1795C145.129 34.3703 145.603 33.1089 145.745 31.3953L145.816 30.5028C145.105 31.6452 144.217 32.5496 143.151 33.216C142.084 33.8824 140.864 34.2156 139.49 34.2156C137.192 34.2156 135.498 33.454 134.408 31.9308C133.318 30.4076 132.785 28.3013 132.808 25.6119L132.844 16.3299H139.454L139.419 25.1835C139.419 26.1355 139.597 26.8495 139.952 27.3255C140.331 27.8015 140.852 28.0395 141.516 28.0395C142.345 28.0395 143.044 27.6944 143.613 27.0042C144.205 26.2902 144.667 25.0883 144.999 23.3985C145.354 21.6849 145.556 19.3287 145.603 16.3299H152V30.6813C152 33.3469 151.491 35.5246 150.472 37.2144C149.477 38.9042 148.067 40.1537 146.243 40.9629C144.442 41.7721 142.333 42.1767 139.916 42.1767Z"
            fill="#1B1B1B" />
</svg>