<svg width="100%"
     height="100%"
     viewBox="0 0 20 20"
     stroke="#494949"
     fill="none">
  <path d="M8.37499 2.10678L3.35832 5.38178C1.74999 6.43178 1.74999 8.78178 3.35832 9.83178L8.37499 13.1068C9.27499 13.6984 10.7583 13.6984 11.6583 13.1068L16.65 9.83178C18.25 8.78178 18.25 6.44011 16.65 5.39011L11.6583 2.11511C10.7583 1.51511 9.27499 1.51511 8.37499 2.10678Z"
        stroke-linecap="round"
        stroke-linejoin="round" />
  <path d="M4.69165 10.8984L4.68332 14.8068C4.68332 15.8651 5.49999 16.9984 6.49999 17.3318L9.15832 18.2151C9.61665 18.3651 10.375 18.3651 10.8417 18.2151L13.5 17.3318C14.5 16.9984 15.3167 15.8651 15.3167 14.8068V10.9401"
        stroke-linecap="round"
        stroke-linejoin="round" />
  <path d="M17.8333 12.5V7.5"
        stroke-linecap="round"
        stroke-linejoin="round" />
</svg>