<svg width="104" height="34" viewBox="0 0 104 34" fill="none" xmlns="http://www.w3.org/2000/svg">
<ellipse cx="17.3694" cy="17" rx="17" ry="17.3694" transform="rotate(90 17.3694 17)" fill="#0D99FF"/>
<path d="M21.2012 15.1944C20.8445 15.0357 20.423 14.9564 19.9367 14.9564C18.656 14.9564 17.7725 15.6149 17.2861 16.9318C16.7998 18.2487 16.5566 20.3114 16.5566 23.1198H12.0579V15.1706L12.0093 10.8866H16.508L16.3134 14.0282C16.7025 12.8858 17.2618 12.0528 17.9913 11.5292C18.7208 10.9897 19.5314 10.72 20.423 10.72C20.6986 10.72 20.958 10.7359 21.2012 10.7676C21.4606 10.7993 21.7362 10.8628 22.028 10.958L21.2012 15.1944Z" fill="#1B1B1B"/>
<path d="M27.0947 23.3816C25.6032 23.3816 24.4684 22.8977 23.6903 21.9298C22.9283 20.9619 22.5555 19.5577 22.5717 17.7172L22.6203 10.8866H27.1433L27.0947 17.4078C27.0947 18.6454 27.5405 19.2642 28.4321 19.2642C28.8374 19.2642 29.2022 19.1452 29.5264 18.9072C29.8668 18.6533 30.1586 18.217 30.4018 17.5982C30.645 16.9794 30.8395 16.1305 30.9854 15.0516C31.1313 13.9568 31.2124 12.5685 31.2286 10.8866H35.6057V23.1198H31.2043L31.4475 20.835C30.9611 21.6125 30.3451 22.2313 29.5994 22.6914C28.8698 23.1515 28.0349 23.3816 27.0947 23.3816Z" fill="#1B1B1B"/>
<path d="M51.0442 5.50781V23.1198H46.5456L46.6671 21.3824C45.8404 22.7152 44.5678 23.3816 42.8494 23.3816C41.212 23.3816 39.907 22.858 38.9343 21.8108C37.9616 20.7636 37.4753 19.3277 37.4753 17.503C37.4753 16.1385 37.7671 14.9485 38.3507 13.933C38.9505 12.9175 39.7368 12.1321 40.7094 11.5768C41.6821 11.0056 42.7278 10.72 43.8464 10.72C44.9325 10.72 45.8323 10.9659 46.5456 11.4578L46.5212 10.8866V5.50781H51.0442ZM44.5516 14.528C43.8058 14.528 43.2141 14.8057 42.7764 15.361C42.3387 15.9005 42.1198 16.5669 42.1198 17.3602C42.1198 18.0742 42.2901 18.6216 42.6305 19.0024C42.9709 19.3832 43.433 19.5736 44.0166 19.5736C44.6812 19.5736 45.2568 19.3039 45.7431 18.7644C46.2457 18.2249 46.4969 17.5189 46.4969 16.6462C46.4969 15.9957 46.3186 15.48 45.962 15.0992C45.6215 14.7184 45.1514 14.528 44.5516 14.528Z" fill="#1B1B1B"/>
<path d="M59.9386 23.3816C58.512 23.3816 57.2718 23.1357 56.2181 22.6438C55.1643 22.1361 54.3457 21.4141 53.7621 20.478C53.1947 19.5419 52.911 18.4391 52.911 17.1698C52.911 15.8846 53.1947 14.7581 53.7621 13.7902C54.3457 12.8223 55.1319 12.0687 56.1208 11.5292C57.1097 10.9897 58.2121 10.72 59.428 10.72C60.9194 10.72 62.111 11.0373 63.0026 11.672C63.8942 12.3067 64.5021 13.1873 64.8264 14.3138C65.1668 15.4245 65.2317 16.7097 65.0209 18.1694H57.5312C57.6447 18.5661 57.9365 18.9151 58.4066 19.2166C58.8768 19.5022 59.509 19.645 60.3034 19.645C60.7573 19.645 61.1869 19.5736 61.5922 19.4308C62.0137 19.2721 62.3541 19.0579 62.6135 18.7882L64.9723 21.4776C64.5184 22.0012 63.8861 22.4534 63.0755 22.8342C62.2812 23.1991 61.2355 23.3816 59.9386 23.3816ZM59.6225 13.8378C59.1199 13.8378 58.6903 13.9727 58.3337 14.2424C57.977 14.5121 57.7339 14.8929 57.6042 15.3848H61.2761C61.2274 14.3535 60.6762 13.8378 59.6225 13.8378Z" fill="#1B1B1B"/>
<path d="M66.9847 23.1198V10.8866H71.4591L71.2888 13.219C71.7914 12.4257 72.4074 11.8148 73.1369 11.3864C73.8827 10.9421 74.7176 10.72 75.6416 10.72C76.5008 10.72 77.279 10.9104 77.9761 11.2912C78.6732 11.672 79.2081 12.3146 79.581 13.219C80.1322 12.3463 80.8374 11.7117 81.6966 11.315C82.5558 10.9183 83.4231 10.72 84.2985 10.72C85.8386 10.72 86.9815 11.2277 87.7272 12.2432C88.473 13.2428 88.8377 14.7263 88.8215 16.6938L88.7729 23.1198H84.2499L84.2985 16.9318C84.2985 15.5038 83.8446 14.7898 82.9368 14.7898C82.5639 14.7898 82.2154 14.9167 81.8911 15.1706C81.5669 15.4086 81.2751 15.837 81.0157 16.4558C80.7725 17.0587 80.5699 17.9076 80.4078 19.0024C80.2619 20.0813 80.1727 21.4538 80.1403 23.1198H75.6416V16.9318C75.6416 15.5038 75.1877 14.7898 74.2799 14.7898C73.907 14.7898 73.5584 14.9167 73.2342 15.1706C72.91 15.4086 72.6182 15.837 72.3588 16.4558C72.1156 17.0587 71.913 17.9076 71.7509 19.0024C71.605 20.0813 71.5158 21.4538 71.4834 23.1198H66.9847Z" fill="#1B1B1B"/>
<path d="M95.7321 28.1178C95.2134 28.1178 94.646 28.0781 94.0299 27.9988C93.4301 27.9353 92.8465 27.8243 92.2791 27.6656C91.7279 27.5069 91.2659 27.3086 90.893 27.0706L91.963 23.3102C92.579 23.6117 93.2032 23.8417 93.8354 24.0004C94.4839 24.1749 95.2053 24.2622 95.9996 24.2622C97.2803 24.2622 98.1963 23.9925 98.7475 23.453C99.2987 22.9135 99.6229 22.0726 99.7202 20.9302L99.7688 20.3352C99.2825 21.0968 98.6745 21.6997 97.945 22.144C97.2155 22.5883 96.3806 22.8104 95.4403 22.8104C93.8678 22.8104 92.7087 22.3027 91.963 21.2872C91.2173 20.2717 90.8525 18.8675 90.8687 17.0746L90.893 10.8866H95.416L95.3917 16.789C95.3917 17.4237 95.5133 17.8997 95.7565 18.217C96.0159 18.5343 96.3725 18.693 96.8264 18.693C97.3938 18.693 97.8721 18.4629 98.2611 18.0028C98.6664 17.5268 98.9825 16.7255 99.2095 15.599C99.4527 14.4566 99.5905 12.8858 99.6229 10.8866H104V20.4542C104 22.2313 103.651 23.6831 102.954 24.8096C102.273 25.9361 101.309 26.7691 100.061 27.3086C98.8285 27.8481 97.3857 28.1178 95.7321 28.1178Z" fill="#1B1B1B"/>
</svg>
