<svg width="28" height="28" viewBox="0 0 28 28" fill="none" xmlns="http://www.w3.org/2000/svg">
<path d="M5.37299 13.2159C5.37296 13.2159 5.37297 13.2159 5.37301 13.2159L5.37299 13.2159ZM5.4518 13.2441L22.5944 6.81172L19.4866 21.1994C19.4854 21.1992 19.4849 21.1988 19.4845 21.1986L19.4845 21.1985L19.4845 21.1985L19.479 21.1946L15.2972 18.2382C14.8756 17.9334 14.2557 17.8721 13.8277 18.2662L11.5155 20.1013C11.5105 20.1045 11.5053 20.1072 11.4999 20.1096L11.0907 18.8324C11.1254 18.8684 11.1641 18.9011 11.2068 18.9298C11.3551 19.0294 11.5226 19.0614 11.6724 19.0482C11.9324 19.0253 12.2917 18.8242 12.3136 18.4099L12.5233 16.7825L12.5274 16.7506V16.7186C12.5274 16.5881 12.6093 16.4393 12.7956 16.2573L19.4935 10.1706C19.6192 10.0831 19.7148 9.94776 19.7418 9.77787C19.7709 9.59427 19.7095 9.43679 19.6378 9.3325C19.5013 9.13384 19.1803 8.9445 18.8303 9.11424L18.8113 9.12343L18.7932 9.13419L10.5973 14.0002C9.99969 14.2603 9.76689 14.96 10.0733 15.5368L10.3495 16.5192L9.87959 15.0526L9.8046 14.8185L9.5735 14.7349L5.4518 13.2441Z" stroke="#6C6C6C"/>
</svg>
